<mxfile host="app.diagrams.net" agent="Mozilla/5.0 (Windows NT 10.0; Win64; x64) AppleWebKit/537.36 (KHTML, like Gecko) Chrome/141.0.0.0 Safari/537.36" version="28.2.8">
  <diagram name="Trang-1" id="NnhUiqIRTxAHF_eqK31P">
    <mxGraphModel dx="1042" dy="574" grid="0" gridSize="10" guides="1" tooltips="1" connect="1" arrows="1" fold="1" page="1" pageScale="1" pageWidth="850" pageHeight="1100" math="0" shadow="0">
      <root>
        <mxCell id="0" />
        <mxCell id="1" parent="0" />
        <mxCell id="w-ye91rj_SJYyH5A28Wd-2" value="" style="shape=ellipse;fillColor=#000000;strokeColor=#000000;" vertex="1" parent="1">
          <mxGeometry x="77" y="115" width="30" height="30" as="geometry" />
        </mxCell>
        <mxCell id="w-ye91rj_SJYyH5A28Wd-3" value="Chờ nhập kho" style="rounded=1;whiteSpace=wrap;html=1;" vertex="1" parent="1">
          <mxGeometry x="17" y="223" width="150" height="50" as="geometry" />
        </mxCell>
        <mxCell id="w-ye91rj_SJYyH5A28Wd-4" value="Còn hàng" style="rounded=1;whiteSpace=wrap;html=1;" vertex="1" parent="1">
          <mxGeometry x="317" y="216" width="150" height="50" as="geometry" />
        </mxCell>
        <mxCell id="w-ye91rj_SJYyH5A28Wd-5" value="Hết hàng" style="rounded=1;whiteSpace=wrap;html=1;" vertex="1" parent="1">
          <mxGeometry x="350" y="451" width="150" height="50" as="geometry" />
        </mxCell>
        <mxCell id="w-ye91rj_SJYyH5A28Wd-6" value="Ngừng kinh doanh" style="rounded=1;whiteSpace=wrap;html=1;" vertex="1" parent="1">
          <mxGeometry x="587" y="273" width="160" height="50" as="geometry" />
        </mxCell>
        <mxCell id="w-ye91rj_SJYyH5A28Wd-7" value="" style="shape=doubleEllipse;fillColor=#000000;strokeColor=#000000;" vertex="1" parent="1">
          <mxGeometry x="654" y="418" width="30" height="30" as="geometry" />
        </mxCell>
        <mxCell id="w-ye91rj_SJYyH5A28Wd-8" value="Đặt hàng từ NCC" style="endArrow=block;endFill=1;html=1;" edge="1" parent="1" source="w-ye91rj_SJYyH5A28Wd-2" target="w-ye91rj_SJYyH5A28Wd-3">
          <mxGeometry relative="1" as="geometry" />
        </mxCell>
        <mxCell id="w-ye91rj_SJYyH5A28Wd-9" value="Nhập kho thành công" style="endArrow=block;endFill=1;html=1;" edge="1" parent="1" source="w-ye91rj_SJYyH5A28Wd-3" target="w-ye91rj_SJYyH5A28Wd-4">
          <mxGeometry relative="1" as="geometry" />
        </mxCell>
        <mxCell id="w-ye91rj_SJYyH5A28Wd-10" value="Bán hết" style="endArrow=block;endFill=1;html=1;" edge="1" parent="1" source="w-ye91rj_SJYyH5A28Wd-4" target="w-ye91rj_SJYyH5A28Wd-5">
          <mxGeometry relative="1" as="geometry" />
        </mxCell>
        <mxCell id="w-ye91rj_SJYyH5A28Wd-11" value="Nhập thêm hàng" style="endArrow=block;endFill=1;html=1;" edge="1" parent="1" source="w-ye91rj_SJYyH5A28Wd-5" target="w-ye91rj_SJYyH5A28Wd-4">
          <mxGeometry relative="1" as="geometry" />
        </mxCell>
        <mxCell id="w-ye91rj_SJYyH5A28Wd-12" value="Ngừng kinh doanh" style="endArrow=block;endFill=1;html=1;" edge="1" parent="1" source="w-ye91rj_SJYyH5A28Wd-4" target="w-ye91rj_SJYyH5A28Wd-6">
          <mxGeometry relative="1" as="geometry" />
        </mxCell>
        <mxCell id="w-ye91rj_SJYyH5A28Wd-13" value="Ngừng kinh doanh" style="endArrow=block;endFill=1;html=1;" edge="1" parent="1" source="w-ye91rj_SJYyH5A28Wd-5" target="w-ye91rj_SJYyH5A28Wd-6">
          <mxGeometry relative="1" as="geometry" />
        </mxCell>
        <mxCell id="w-ye91rj_SJYyH5A28Wd-14" value="Kết thúc vòng đời" style="endArrow=block;endFill=1;html=1;" edge="1" parent="1" source="w-ye91rj_SJYyH5A28Wd-6" target="w-ye91rj_SJYyH5A28Wd-7">
          <mxGeometry relative="1" as="geometry" />
        </mxCell>
      </root>
    </mxGraphModel>
  </diagram>
</mxfile>
